<?xml version="1.0" encoding="UTF-8"?>
<svg xmlns="http://www.w3.org/2000/svg" viewBox="0 0 120 120" width="120" height="120" role="img" aria-labelledby="mssLogoTitle mssLogoDesc">
  <title id="mssLogoTitle">Mustard Seed Solutions mark</title>
  <desc id="mssLogoDesc">Futuristic hex seed module with data stem, sprout panels, and circuit traces.</desc>
  <defs>
    <linearGradient id="mssLgHex" x1="0" y1="0" x2="1" y2="1">
      <stop offset="0%" stop-color="#7dd3fc"/>
      <stop offset="100%" stop-color="#0ea5e9"/>
    </linearGradient>
    <linearGradient id="mssLgBeam" x1="0" y1="1" x2="0" y2="0">
      <stop offset="0%" stop-color="#38bdf8" stop-opacity="0.95"/>
      <stop offset="50%" stop-color="#a78bfa" stop-opacity="0.98"/>
      <stop offset="100%" stop-color="#fb923c" stop-opacity="0.95"/>
    </linearGradient>
    <radialGradient id="mssLgNucleus" cx="50%" cy="50%" r="50%">
      <stop offset="0%" stop-color="#fde68a"/>
      <stop offset="55%" stop-color="#fb923c"/>
      <stop offset="100%" stop-color="#7c2d12" stop-opacity="0"/>
    </radialGradient>
  </defs>
  <g fill="none" stroke-linecap="square" stroke-width="1.2">
    <path d="M60 80 L46 94 M46 94 L40 94 M46 94 L46 102" stroke="#38bdf8"/>
    <path d="M60 80 L60 98 M60 98 L54 104 M60 98 L66 104" stroke="#a78bfa"/>
    <path d="M60 80 L74 94 M74 94 L80 94 M74 94 L74 102" stroke="#fb923c"/>
  </g>
  <g>
    <circle cx="40" cy="94" r="1.5" fill="#38bdf8"/>
    <circle cx="46" cy="102" r="1.5" fill="#38bdf8"/>
    <circle cx="54" cy="104" r="1.5" fill="#a78bfa"/>
    <circle cx="66" cy="104" r="1.5" fill="#a78bfa"/>
    <circle cx="80" cy="94" r="1.5" fill="#fb923c"/>
    <circle cx="74" cy="102" r="1.5" fill="#fb923c"/>
  </g>
  <g>
    <polygon points="60,56 76,66 76,82 60,92 44,82 44,66" fill="#0e1422" stroke="url(#mssLgHex)" stroke-width="1.6" stroke-linejoin="round"/>
    <polygon points="60,62 71,68 71,80 60,86 49,80 49,68" fill="none" stroke="#7dd3fc" stroke-width="0.7" stroke-dasharray="2 2" stroke-linejoin="round" opacity="0.7"/>
    <circle cx="60" cy="74" r="6" fill="url(#mssLgNucleus)"/>
    <line x1="44" y1="74" x2="49" y2="74" stroke="#38bdf8" stroke-width="0.8" opacity="0.85" stroke-linecap="round"/>
    <line x1="71" y1="74" x2="76" y2="74" stroke="#fb923c" stroke-width="0.8" opacity="0.85" stroke-linecap="round"/>
    <line x1="60" y1="56" x2="60" y2="60" stroke="#a78bfa" stroke-width="0.8" opacity="0.85" stroke-linecap="round"/>
  </g>
  <g>
    <path d="M60 56 L60 14" stroke="url(#mssLgBeam)" stroke-width="1.6" stroke-linecap="round" fill="none"/>
    <line x1="60" y1="56" x2="60" y2="14" stroke="#bae6fd" stroke-width="0.6" stroke-linecap="round" opacity="0.9"/>
  </g>
  <g stroke-linejoin="round">
    <polygon points="60,42 44,38 40,28 52,26" fill="#38bdf8" fill-opacity="0.2" stroke="#38bdf8" stroke-width="1"/>
    <line x1="60" y1="42" x2="46" y2="32" stroke="#7dd3fc" stroke-width="0.6" opacity="0.9" stroke-linecap="round"/>
    <polygon points="60,30 78,24 80,14 66,14" fill="#fb923c" fill-opacity="0.2" stroke="#fb923c" stroke-width="1"/>
    <line x1="60" y1="30" x2="76" y2="18" stroke="#fed7aa" stroke-width="0.6" opacity="0.9" stroke-linecap="round"/>
  </g>
  <circle cx="60" cy="56" r="1.8" fill="#fde68a" stroke="none" opacity="0.95"/>
  <circle cx="60" cy="56" r="0.9" fill="#7dd3fc" opacity="0.85"/>
</svg>
